<?xml version="1.0" encoding="UTF-8" standalone="no"?>
<!-- Generator: visioncortex VTracer 0.6.4 -->

<svg
   version="1.1"
   width="1024"
   height="1024"
   id="svg148"
   sodipodi:docname="logo.svg"
   inkscape:version="1.2.2 (b0a8486541, 2022-12-01)"
   xmlns:inkscape="http://www.inkscape.org/namespaces/inkscape"
   xmlns:sodipodi="http://sodipodi.sourceforge.net/DTD/sodipodi-0.dtd"
   xmlns="http://www.w3.org/2000/svg"
   xmlns:svg="http://www.w3.org/2000/svg">
  <defs
     id="defs152" />
  <sodipodi:namedview
     id="namedview150"
     pagecolor="#505050"
     bordercolor="#ffffff"
     borderopacity="1"
     inkscape:showpageshadow="0"
     inkscape:pageopacity="0"
     inkscape:pagecheckerboard="1"
     inkscape:deskcolor="#505050"
     showgrid="false"
     inkscape:zoom="1.4142136"
     inkscape:cx="605.28341"
     inkscape:cy="639.93164"
     inkscape:window-width="2560"
     inkscape:window-height="1367"
     inkscape:window-x="2560"
     inkscape:window-y="0"
     inkscape:window-maximized="1"
     inkscape:current-layer="svg148" />
  <g
     id="g540"
     transform="matrix(1.7834063,0,0,1.7602039,-385.11559,-411.81717)">
    <path
       d="m 456.79785,254.75977 c 68.91963,-1.81491 137.40824,24.20244 190.76127,67.26124 25.06459,20.47282 47.2006,45.46046 62.26264,74.10048 1.79428,23.01707 -0.57545,48.58655 -13.63733,68.60841 -9.62322,-8.16843 -15.26117,-30.83172 -27.70089,-42.50743 -23.6274,-32.68496 -52.18603,-62.5616 -88.1137,-81.71663 -39.10251,-21.67552 -83.76203,-34.09362 -128.66199,-31.81607 -55.20723,0.0872 -109.50076,21.46516 -153.0911,54.72663 -12.49786,11.04181 -30.43568,25.07627 -47.64156,15.46941 -17.58358,-9.3663 -16.56347,-34.69687 -0.80103,-45.33826 29.56359,-26.21433 64.92507,-45.67375 101.65957,-59.94109 33.51672,-12.40302 69.22742,-18.80258 104.96412,-18.84669 z"
       fill="#a4c6da"
       id="path4"
       sodipodi:nodetypes="cccccccccccc" />
    <path
       d="m 738,412 c 24.1588,44.04797 22.31843,100.54981 -0.91118,144.65482 -26.39642,49.67876 -79.68993,80.58019 -134.6017,87.39334 -51.80376,8.02783 -108.11475,1.06774 -155.12508,28.68685 C 405.36174,699.76994 376.35295,745.93269 368,795 351.99939,746.91061 354.28825,688.39652 390.1126,649.48449 c 32.24517,-38.20668 83.18115,-54.02785 131.80854,-54.87712 53.44624,-2.82015 111.87808,-8.20779 154.00723,-44.92699 35.91002,-30.75967 59.46871,-75.79316 61.3319,-123.31037 C 737.61729,421.5865 737.85321,416.7944 738,412 Z"
       fill="#345e77"
       id="path6"
       sodipodi:nodetypes="cccccccccccccccccccc" />
    <path
       d="m 459.5625,356.75 c 71.26861,-0.78803 139.50243,37.84892 181.08903,94.79688 12.27963,16.50549 29.17471,31.81573 30.91097,53.58312 -3.22908,14.66052 -16.13952,25.70976 -29.23961,31.80756 -15.89685,4.41055 -17.792,-18.73316 -26.12974,-27.82155 -14.03291,-22.2542 -31.45288,-42.46426 -51.04346,-59.96117 -31.84303,-25.4406 -72.76724,-40.16409 -113.72792,-37.45728 -43.63998,-0.42683 -83.74201,21.32285 -117.57063,47.08039 -12.28293,9.32237 -33.41101,10.14897 -40.75328,-5.80526 -8.68258,-17.07574 5.67375,-34.37296 18.96464,-43.97269 41.74182,-32.49981 94.04768,-53.77035 147.5,-52.25 z"
       fill="#a1c4d8"
       id="path8"
       sodipodi:nodetypes="ccccccccccccccccccccccccccccccccc" />
    <path
       d="m 768,554 c -3.5081,71.24655 -42.14103,140.75245 -102.23423,179.60137 -33.33765,21.51979 -73.19353,32.86136 -112.90075,30.82184 -43.84022,0.95765 -87.42367,-15.03198 -121.74888,-42.0071 22.25997,-26.08636 55.58922,-39.52866 89.01059,-43.42949 34.95801,-4.80784 70.76321,-0.80064 105.22951,-9.66206 53.98558,-11.50077 104.32062,-44.46191 131.18337,-93.43859 C 760.6919,568.77088 764.49008,561.45198 768,554 Z"
       fill="#355d76"
       id="path10"
       sodipodi:nodetypes="cccccccc" />
    <path
       d="m 456.49341,460.60889 c 19.41884,-0.75743 39.27657,1.54661 56.90077,10.21961 34.60008,15.29285 82.82832,73.90504 77.179,79.00841 -8.70918,7.86753 -9.036,7.301 -18.38616,10.42169 -13.16274,3.31899 -28.98786,2.91589 -38.8382,-7.74852 -12.28152,-12.4048 -24.32664,-26.32711 -41.5452,-31.818 -17.05211,-5.86055 -35.58221,-5.8761 -53.33375,-3.99692 -18.86202,2.47323 -34.1626,14.71925 -48.88667,25.74936 -10.76622,7.62118 -27.8646,8.80771 -36.56404,-2.54379 -7.60059,-10.00401 -7.20225,-24.95126 0.88147,-34.59765 12.07152,-15.78241 30.17357,-25.53321 47.7834,-33.92653 15.86651,-7.51656 33.32558,-11.11605 50.86061,-10.76904 1.31624,-0.009 2.63254,-0.008 3.94877,0.001 z"
       fill="#7aa2b9"
       id="path12"
       sodipodi:nodetypes="ccsccccccccccc" />
    <path
       d="m 645.14805,320.09026 c 22.49745,16.62778 40.6054,38.44721 56.40049,61.35726 2.86176,4.80541 6.50016,9.33529 8.30721,14.63631 0.96067,8.57883 0.41799,17.28529 0.5233,25.91608 -0.64435,14.87136 -7.82038,40.40092 -12.83037,42.44799 -5.14828,2.10358 -7.32015,-8.11857 -10.32641,-12.19694 -11.40474,-21.92307 -26.68883,-41.59268 -43.04023,-60.01484 -10.29706,-11.07727 -20.84294,-22.06288 -32.8134,-31.35746 12.35677,-10.30533 25.12642,-21.29056 32.18551,-36.0681 0.65833,-1.52645 1.21073,-3.1013 1.5939,-4.7203 z"
       fill="#7ba3ba"
       id="path14"
       sodipodi:nodetypes="ccccsccscc" />
    <path
       d="m 597.57067,406.53969 c 19.73882,12.84801 62.73545,66.24252 69.34701,81.09276 2.63523,5.48918 4.0674,11.44198 4.64232,17.48755 -2.16753,12.25419 -13.07879,22.30648 -21.83617,28.01811 -5.3422,3.36999 -13.89211,8.15636 -18.68455,1.46463 -6.19851,-6.84095 -8.33488,-15.4718 -13.21461,-22.79911 -10.68925,-17.93201 -28.93,-38.68631 -43.1128,-53.91691 5.60649,-6.25672 19.18246,-52.17253 22.8588,-51.34703 z"
       fill="#7aa1b8"
       id="path16"
       sodipodi:nodetypes="cccccccc" />
    <path
       d="m 576.45458,391.33318 c 5.2883,3.34359 16.21061,11.32151 21.11609,15.20651 0.25469,7.06184 -5.02953,27.73286 -9.38247,34.58626 -3.83536,6.08082 -8.60025,11.50322 -13.47633,16.76077 -8.96804,-9.66364 -20.16368,-16.90738 -31.44947,-23.56387 -3.93912,-2.26818 -7.94943,-4.41378 -12.03311,-6.41039 3.84302,-8.03203 10.20105,-14.53038 16.58394,-20.60039 7.14906,-6.36282 14.94762,-12.61321 24.27126,-15.3629 1.42604,-0.37151 2.89326,-0.6153 4.37009,-0.61599 z"
       fill="#8eb3c7"
       id="path20"
       sodipodi:nodetypes="ccccccccc" />
    <path
       d="m 489.72266,563.36719 c 3.69002,2.22105 3.47738,5.55554 -1.1985,5.25941 -37.66108,5.72997 -75.36141,19.18631 -104.06525,44.95606 -5.58692,5.03893 -10.77301,10.52526 -15.45625,16.41453 -0.35173,-6.18826 3.46583,-11.2846 6.2072,-16.48775 14.89433,-25.44189 38.43041,-46.46375 66.64354,-55.7711 15.68278,-4.08794 34.36101,-4.69247 47.86926,5.62885 z"
       fill="#3c5d77"
       id="path22"
       sodipodi:nodetypes="cccccccc" />
  </g>
</svg>
